/* XPM */
static char *a9e37133d38e4a10989ac9dbb0a18722HpVBNvsh02JCl24e[] = {
/* columns rows colors chars-per-pixel */
"50 50 7 1 ",
"  c #FF70BF",
". c #FCBAD3",
"X c #FDCAD3",
"o c #FDD6D3",
"O c #FDD9D2",
"+ c #FEDED2",
"@ c #FEE2D2",
/* pixels */
".............XXXXXX...............................",
".............XXXXXX...............................",
".............XXXXXX...............................",
".............XXXXXX...............................",
".............XXXXXX...............................",
".............XXXXXX...............................",
".......XXXXXXOOOOOOXXXXXX.........................",
".......XXXXXXOOOOOOXXXXXX.........................",
".......XXXXXXOOOOOOXXXXXX.........................",
".......XXXXXXOOOOOOXXXXXX.........................",
".......XXXXXXOOOOOOXXXXXX.........................",
".......XXXXXXOOOOOOXXXXXX.........................",
".XXXXXX++++++      OOOOOOXXXXXXXXXXXX.............",
".XXXXXX++++++      OOOOOOXXXXXXXXXXXX.............",
".XXXXXX++++++      OOOOOOXXXXXXXXXXXX.............",
".XXXXXX++++++      OOOOOOXXXXXXXXXXXX.............",
".XXXXXX++++++      OOOOOOXXXXXXXXXXXX.............",
".XXXXXX++++++      OOOOOOXXXXXXXXXXXX.............",
".......XXXXXXOOOOOOXXXXXXXXXXXXOOOOOOXXXXXX.......",
".......XXXXXXOOOOOOXXXXXXXXXXXXOOOOOOXXXXXX.......",
".......XXXXXXOOOOOOXXXXXXXXXXXXOOOOOOXXXXXX.......",
".......XXXXXXOOOOOOXXXXXXXXXXXXOOOOOOXXXXXX.......",
".......XXXXXXOOOOOOXXXXXXXXXXXXOOOOOOXXXXXX.......",
".......Xooooo@OOOOOXXXXXXXXXXXXOOOOOOXXXXXX.......",
"........XXXXXoXXXXXXXXXXX++++++      OOOOOOXXXXXX.",
"........XXXXXoXXXXXXXXXXX++++++      OOOOOOXXXXXX.",
"........XXXXXoXXXXXXXXXXX++++++      OOOOOOXXXXXX.",
"........XXXXXoXXXXXXXXXXX++++++      OOOOOOXXXXXX.",
"........XXXXXoXXXXXXXXXXX++++++      OOOOOOXXXXXX.",
"..XXXXXXOOOOO@ooooooXXXXX++++++      OOOOOOXXXXXX.",
"..XXXXXXOOOOOOXXXXXX.....XXXXXXOOOOOOXXXXXX.......",
"..XXXXXXOOOOOOXXXXXX.....XXXXXXOOOOOOXXXXXX.......",
"..XXXXXXOOOOOOXXXXXX.....XXXXXXOOOOOOXXXXXX.......",
"..XXXXXXOOOOOOXXXXXX.....XXXXXXOOOOOOXXXXXX.......",
"..XXXXXXOOOOOOXXXXXX.....XXXXXXOOOOOOXXXXXX.......",
"XX++++++      OOOOOOXXXXXoXXXXXOOOOOOXXXXXX.......",
"XX++++++      OOOOOOXXXXXX.....XXXXXX.............",
"XX++++++      OOOOOOXXXXXX.....XXXXXX.............",
"XX++++++      OOOOOOXXXXXX.....XXXXXX.............",
"XX++++++      OOOOOOXXXXXX.....XXXXXX.............",
"XX++++++      OOOOOOXXXXXX.....XXXXXX.............",
"..XXXXXXOOOOOOXXXXXX...........XXXXXX.............",
"..XXXXXXOOOOOOXXXXXX..............................",
"..XXXXXXOOOOOOXXXXXX..............................",
"..XXXXXXOOOOOOXXXXXX..............................",
"..XXXXXXOOOOOOXXXXXX..............................",
"..XXXXXXOOOOOOXXXXXX..............................",
"........XXXXXX....................................",
"........XXXXXX....................................",
"........XXXXXX...................................."
};
