/* XPM */
static char *_6f2535bf7b1461eac34048f5a64998dF0HZy7QFTXWgndLR[] = {
/* columns rows colors chars-per-pixel */
"50 51 108 2 ",
"   c #7F7CBF",
".  c #4467CA",
"X  c #4468CB",
"o  c #4568CB",
"O  c #4769CB",
"+  c #4569CC",
"@  c #486ACB",
"#  c #4A6CCB",
"$  c #4D6DCB",
"%  c #576FC7",
"&  c #526DC8",
"*  c #516FCB",
"=  c #556FC8",
"-  c #5B71C7",
";  c #5F72C6",
":  c #5370CA",
">  c #5371CB",
",  c #5571CB",
"<  c #5872CB",
"1  c #5C72C8",
"2  c #5D76CB",
"3  c #6273C6",
"4  c #6374C6",
"5  c #6675C5",
"6  c #6977C5",
"7  c #6076CA",
"8  c #6278CB",
"9  c #6379CB",
"0  c #697DCB",
"q  c #6A7DCB",
"w  c #6D7ECA",
"e  c #797BC0",
"r  c #817DBE",
"t  c #7181CB",
"y  c #7785CC",
"u  c #7884CB",
"i  c #7C86CB",
"p  c #7C87CB",
"a  c #7B87CC",
"s  c #7C87CC",
"d  c #8C80BB",
"f  c #8F81BB",
"g  c #9182BB",
"h  c #9583BA",
"j  c #9484BB",
"k  c #9785BA",
"l  c #A388B7",
"z  c #A589B7",
"x  c #A88BB7",
"c  c #AD8CB5",
"v  c #AC8CB6",
"b  c #A188B8",
"n  c #B08EB5",
"m  c #B58FB4",
"M  c #B890B3",
"N  c #CD97AF",
"B  c #D29AAF",
"V  c #D99BAD",
"C  c #DA9CAD",
"Z  c #DD9DAD",
"A  c #DF9EAC",
"S  c #C694B0",
"D  c #CD98B0",
"F  c #EAA2AA",
"G  c #ECA3AA",
"H  c #F9A7A7",
"J  c #8088CB",
"K  c #838BCC",
"L  c #868CCC",
"P  c #878DCC",
"I  c #898ECC",
"U  c #8D92CD",
"Y  c #8E92CC",
"T  c #9093CC",
"R  c #9194CD",
"E  c #9495CC",
"W  c #9496CD",
"Q  c #9B99CC",
"!  c #9F9BCC",
"~  c #9C9BCE",
"^  c #9F9CCD",
"/  c #A09CCD",
"(  c #B0A5CD",
")  c #B7A9CE",
"_  c #BFAECE",
"`  c #C1AFCE",
"'  c #C2B0CE",
"]  c #C7B2CE",
"[  c #C8B3CE",
"{  c #C9B4CE",
"}  c #CDB7CF",
"|  c #CFB7CE",
" . c #CEB8CF",
".. c #D0B8CE",
"X. c #D1B9CF",
"o. c #D5BBCF",
"O. c #E0C1CE",
"+. c #E1C1CF",
"@. c #E6C4CF",
"#. c #EAC7CF",
"$. c #ECC8CF",
"%. c #EDC9CF",
"&. c #EEC9CF",
"*. c #F0CACF",
"=. c #F4CCCF",
"-. c #F5CDCF",
";. c #F7CECF",
":. c #F9CFCF",
/* pixels */
"H H H H H H H H H H H F X :.U b H H H H H H H H H H H H H H H H b U :.# F H H H H H H H H H H H H H ",
"H H H H H H H H H H H F + :.U l H H H H H H H H H H H H H H H H z U :.X F H H H H H H H H H H H H H ",
"H H H H H H H H H H H F X :.U z H H H H H H H H H H H H H H H H z U :.X F H H H H H H H H H H H H H ",
"H H H H H H H H H H H F # :.U z H H H H H H H H H H H H H H H H z U :.X F H H H H H H H H H H H H H ",
"H H H H H H H H H H H F X :.U l H H H H H H H H H H H H H H H H l U :.+ F H H H H H H H H H H H H H ",
"H H H H H H H H H H H F X :.U l H H H H H H H H H H H H H H H H l U :.. F H H H H H H H H H H H H H ",
"H H H H H H H H H H H F X :.U z H H H H H H H H H H H H H H H H z U :.. F H H H H H H H H H H H H H ",
"S S S S S S S S S S S m $ :.R r S S S S S S S S S S S S S S S S r W :.# m S S S S S S S S S S S S S ",
"q q q q q q q q q q q w ) :.+.u q q q q q q q q q q q q q q q q u +.:.) q q q q q q q w q q q q q q ",
":.:.:.:.:.:.:.:.:.:.:.:.:.:.:.:.:.:.:.:.:.:.:.:.:.:.:.:.:.:.:.:.:.:.:.:.:.:.:.:.:.:.:.:.:.:.:.:.:.:.",
"X 8 *.%.2 + X + X X X X X X X X X X X X + X Q :._ # . o . + o X X X X X X X X X X + > o.:.&.8 + + . ",
"G 1 | { 4 F F F G G G F G G G G G G G G F D , :.p z G G G G G F G F F F G G G G G F   Q :.X.1 F G F ",
"H 4 } ] 6 H H H H H H H H H H H H H H H H Z : :.J n H H H H H H H H H H H H H H H H k ! :. .4 H H H ",
"H 4 } ] 6 H H H H H H H H H H H H H H H H Z : :.J n H H H H H H H H H H H H H H H H j Q -.} 4 H H H ",
"H 4 | ] 6 H H H H H H H H H H H H H H H H Z : :.J n H H H H H H H H H H H H H H H H j ! :.| 4 H H H ",
"H 4 | ] 6 H H H H H H H H H H H H H H H H Z : :.J n H H H H H H H H H H H H H H H H h Q :.| 4 H H H ",
"H 3 | ] 6 H H H H H H H H H H H H H H H H Z = :.J n H H H H H H H H H H H H H H H H j ! :.| 3 H H H ",
"H 3 | { 6 H H H H H H H H H H H H H H H H Z * :.J n H H H H H H H H H H H H H H H H h ! :.| 4 H H H ",
"B * X.{ < B B B B B B B B B B B B B B B B M < :.K j B B B B B B B B B B B B B B B B e ! :.X.= B B B ",
"2 p -.=.u ; 7 2 2 2 7 1 7 2 2 7 1 7 2 2 2 7 ( :. .9 2 7 2 7 1 2 2 ; 2 2 2 2 2 ; 2 1 q +.:.-.u 7 2 2 ",
":.:.:.:.:.:.:.:.:.:.:.:.:.:.:.:.:.:.:.:.:.:.:.:.:.:.:.:.:.:.:.:.:.:.:.:.:.:.:.:.:.:.:.:.:.:.:.:.:.:.",
"* * * * * : * * * * * = / :.o.2 * * * * * * * * * * * * * * * * 2 o.:.! , * * , * * * : * * * : * * ",
"A A A A A A A A A A Z N @ :.U f A A A A A A A A A A A A A A A A f U :.# N Z Z A Z A A A Z A A A A A ",
"H H H H H H H H H H H F . :.U l H H H H H H H H H H H H H H H H z U :.. F H H H H H H H H H H H H H ",
"H H H H H H H H H H H F . :.U l H H H H H H H H H H H H H H H H l U :.o G H H H H H H H H H H H H H ",
"H H H H H H H H H H H F . :.U l H H H H H H H H H H H H H H H H l U :.+ F H H H H H H H H H H H H H ",
"H H H H H H H H H H H F @ :.U z H H H H H H H H H H H H H H H H l T :.. F H H H H H H H H H H H H H ",
"H H H H H H H H H H H F + :.U z H H H H H H H H H H H H H H H H l U :.# F H H H H H H H H H H H H H ",
"H H H H H H H H H H H F X :.U z H H H H H H H H H H H H H H H H l U :.X F H H H H H H H H H H H H H ",
"G G G G G G G G G F G V # :.U j G G G G G F G G G G G G G G G G j U :.+ V G G G G G G G G G G G G G ",
"X X X X X X . . X X X # E :.| $ X X + X X X . + + . + . . + . . * | :.T # . X X X X X X . X X . . . ",
":.:.:.:.:.:.:.:.:.:.:.:.:.:.:.:.:.:.:.:.:.:.:.:.:.:.:.:.:.:.:.:.:.:.:.:.:.:.:.:.:.:.:.:.:.:.:.:.:.:.",
"q I :.-.P q q q q q q q q q q q q q q q q w _ -.o.u w w q q q q q q q q q q q q q q y @.:.-.U q q q ",
"N $ X.{ , S S S S S S S S S S S S S S S S v < :.K r S S S S S S S S S S S S S S S S e ! :.X.* S S S ",
"H 4 | ] 6 H H H H H H H H H H H H H H H H Z * :.J n H H H H H H H H H H H H H H H H h Q :.| 4 H H H ",
"H 3 | ] 6 H H H H H H H H H H H H H H H H Z % -.J v H H H H H H H H H H H H H H H H h ! :.{ 4 H H H ",
"H 4 } ] 4 H H H H H H H H H H H H H H H H Z * :.J n H H H H H H H H H H H H H H H H j Q :. .4 H H H ",
"H 4 } ] 6 H H H H H H H H H H H H H H H H Z , :.J n H H H H H H H H H H H H H H H H j Q :.| 4 H H H ",
"H 4 | ] 6 H H H H H H H H H H H H H H H H Z , :.J n H H H H H H H H H H H H H H H H j Q -.| 4 H H H ",
"H 4 | ] 6 H H H H H H H H H H H H H H H H Z * :.J n H H H H H H H H H H H H H H H H j Q :.| 4 H H H ",
"H 3 | { 4 H H H H H H H H H H H H H H H H V , :.p v H H H H H H H H H H H H H H H H g ~ :.X.; H H H ",
"X , $.#.* . . . . . . . . . . . . . . . . . T :.) . . . . . . . . . . . X X X X X + X | :.%.: . . . ",
"#.:.:.:.:.%.%.%.%.%.$.%.$.%.#.%.$.$.$.$.#.%.:.:.:.-.$.$.$.$.$.$.$.$.%.$.$.$.&.#.%.#.-.:.:.:.:.&.%.%.",
"u u u u u u u u u u u p ` :.@.K u u u u u u u u u u u u u u u u P @.:.' u u u u u u u u u u u u u u ",
"M M M M M M M M M M M z $ :.W   M M M M M M M M M M M M M M M M   R :.$ v m M M M M M M m M M M m M ",
"H H H H H H H H H H H F . :.U l H H H H H H H H H H H H H H H H l U :.X F H H H H H H H H H H H H H ",
"H H H H H H H H H H H F + :.U l H H H H H H H H H H H H H H H H z U :.X F H H H H H H H H H H H H H ",
"H H H H H H H H H H H F # -.U l H H H H H H H H H H H H H H H H z U :.X F H H H H H H H H H H H H H ",
"H H H H H H H H H H H F . :.U l H H H H H H H H H H H H H H H H l U :.# F H H H H H H H H H H H H H ",
"H H H H H H H H H H H F . :.U l H H H H H H H H H H H H H H H H l U :.X F H H H H H H H H H H H H H ",
"H H H H H H H H H H H F # :.U l H H H H H H H H H H H H H H H H l U :.X F H H H H H H H H H H H H H "
};
